<svg width="20" height="17" viewBox="0 0 20 17" fill="none" xmlns="http://www.w3.org/2000/svg">
<path d="M19.8097 2.22724C19.8677 2.14647 19.7821 2.04218 19.6894 2.07811C19.0307 2.33344 18.3422 2.50571 17.64 2.5906C18.4219 2.12348 19.0253 1.4124 19.3599 0.570529C19.3939 0.484769 19.3003 0.408189 19.2195 0.452799C18.4928 0.854139 17.709 1.14313 16.8949 1.30957C16.8608 1.31654 16.8257 1.30494 16.8018 1.27969C16.1908 0.635019 15.3865 0.205779 14.5098 0.0574491C13.6146 -0.0939908 12.6945 0.0559593 11.8938 0.483789C11.093 0.911619 10.4569 1.59313 10.0852 2.42144C9.73183 3.209 9.63653 4.08691 9.81083 4.93003C9.82433 4.99545 9.77313 5.05721 9.70643 5.05307C8.12243 4.95469 6.57469 4.53336 5.15868 3.81446C3.74627 3.09739 2.49554 2.09983 1.48267 0.883299C1.43772 0.829309 1.35252 0.836289 1.31976 0.898449C1.0046 1.49651 0.839579 2.16311 0.840029 2.8406C0.838749 3.51498 1.00424 4.17922 1.32178 4.77416C1.63932 5.36911 2.09905 5.87631 2.66003 6.2506C2.0651 6.2344 1.48178 6.0873 0.951279 5.82067C0.882909 5.78631 0.800899 5.83524 0.804459 5.91167C0.845829 6.8009 1.17228 7.6936 1.73734 8.3786C2.33866 9.1074 3.17328 9.6062 4.10003 9.7906C3.74328 9.8992 3.3729 9.9564 3.00003 9.9606C2.79709 9.9582 2.59454 9.9433 2.39356 9.9158C2.31904 9.9056 2.2582 9.9764 2.28428 10.0469C2.5607 10.7944 3.04902 11.4467 3.6911 11.9228C4.37755 12.4318 5.2056 12.7142 6.06003 12.7306C4.61723 13.8659 2.83591 14.4855 1.00003 14.4906C0.811379 14.4912 0.622819 14.4851 0.434709 14.4723C0.328699 14.4651 0.279949 14.6063 0.371319 14.6605C2.16009 15.7221 4.20462 16.2831 6.29003 16.2806C7.82972 16.2966 9.35713 16.0056 10.7831 15.4247C12.2091 14.8437 13.505 13.9845 14.5952 12.8971C15.6854 11.8097 16.548 10.516 17.1326 9.0915C17.7171 7.667 18.012 6.1403 18 4.6006V4.12077C18 4.0892 18.0149 4.05951 18.0401 4.04048C18.7184 3.52834 19.3149 2.91691 19.8097 2.22724Z" fill="url(#paint0_linear_439_431)"/>
<defs>
<linearGradient id="paint0_linear_439_431" x1="10.1701" y1="-7.55869" x2="10.1701" y2="24.7699" gradientUnits="userSpaceOnUse">
<stop stop-color="#98FF87"/>
<stop offset="1" stop-color="#87FFD4"/>
</linearGradient>
</defs>
</svg>
